<svg xmlns="http://www.w3.org/2000/svg" version="1.1" id="Layer_1" x="0" y="0" width="114.51" height="114.51" viewBox="0 0 114.51 114.51" enable-background="new 0 0 114.514 114.514" xml:space="preserve"><path fill="#053B5C" d="M57.26 3.2c29.85 0 54.04 24.2 54.04 54.04 0 29.85-24.2 54.04-54.04 54.04 -29.84 0-54.04-24.19-54.04-54.04C3.22 27.4 27.41 3.2 57.26 3.2M57.26 0.42c-31.33 0-56.82 25.49-56.82 56.82 0 31.33 25.49 56.82 56.82 56.82s56.82-25.49 56.82-56.82C114.08 25.91 88.59 0.42 57.26 0.42L57.26 0.42z"/><path fill="#053B5C" d="M31.15 25.77l-1.23 0.43 -0.25-1.24 1.84-0.74h0.84v8.74h-1.19V25.77z"/><path fill="#053B5C" d="M36.2 33.12c-0.47 0-0.89-0.09-1.23-0.29 -0.34-0.19-0.66-0.44-0.96-0.74l0.65-1.17c0.26 0.28 0.51 0.49 0.76 0.62 0.25 0.13 0.52 0.2 0.81 0.2 0.25 0 0.48-0.07 0.68-0.2 0.2-0.13 0.37-0.32 0.51-0.56 0.14-0.25 0.25-0.54 0.33-0.88 0.08-0.33 0.12-0.7 0.14-1.1 -0.17 0.26-0.39 0.48-0.65 0.66 -0.26 0.17-0.58 0.26-0.95 0.26 -0.37 0-0.7-0.06-0.99-0.19 -0.3-0.13-0.55-0.31-0.76-0.55 -0.21-0.24-0.37-0.53-0.49-0.87 -0.12-0.34-0.17-0.72-0.17-1.14v-0.02c0-0.42 0.06-0.82 0.19-1.19 0.12-0.37 0.3-0.68 0.52-0.96 0.23-0.27 0.5-0.48 0.81-0.63 0.31-0.15 0.66-0.23 1.03-0.23 0.43 0 0.79 0.08 1.09 0.23 0.3 0.15 0.56 0.38 0.81 0.69 0.25 0.32 0.46 0.74 0.6 1.26 0.15 0.52 0.23 1.2 0.23 2.05v0.02c0 0.69-0.06 1.33-0.2 1.92 -0.13 0.59-0.32 1.08-0.57 1.5 -0.25 0.41-0.56 0.74-0.92 0.97C37.06 33 36.65 33.12 36.2 33.12zM36.45 28.64c0.22 0 0.41-0.04 0.58-0.13 0.17-0.08 0.32-0.2 0.44-0.34 0.12-0.14 0.21-0.31 0.27-0.49 0.07-0.19 0.1-0.39 0.1-0.6v-0.02c0-0.46-0.13-0.84-0.39-1.14 -0.26-0.3-0.61-0.46-1.04-0.46 -0.21 0-0.41 0.04-0.57 0.12 -0.17 0.08-0.31 0.2-0.43 0.35 -0.12 0.15-0.21 0.32-0.27 0.51 -0.06 0.2-0.09 0.41-0.09 0.63v0.03c0 0.46 0.12 0.83 0.37 1.12C35.67 28.49 36.02 28.64 36.45 28.64z"/><path fill="#053B5C" d="M42.6 33.12c-0.47 0-0.89-0.09-1.23-0.29 -0.34-0.19-0.66-0.44-0.96-0.74l0.65-1.17c0.26 0.28 0.51 0.49 0.76 0.62 0.24 0.13 0.51 0.2 0.81 0.2 0.26 0 0.48-0.07 0.68-0.2 0.2-0.13 0.37-0.32 0.51-0.56 0.14-0.25 0.25-0.54 0.33-0.88 0.08-0.33 0.12-0.7 0.14-1.1 -0.17 0.26-0.38 0.48-0.65 0.66 -0.26 0.17-0.58 0.26-0.95 0.26 -0.36 0-0.69-0.06-0.99-0.19 -0.3-0.13-0.55-0.31-0.76-0.55 -0.21-0.24-0.38-0.53-0.49-0.87 -0.11-0.34-0.17-0.72-0.17-1.14v-0.02c0-0.42 0.06-0.82 0.19-1.19 0.12-0.37 0.3-0.68 0.52-0.96 0.23-0.27 0.5-0.48 0.81-0.63 0.31-0.15 0.66-0.23 1.03-0.23 0.43 0 0.79 0.08 1.09 0.23 0.29 0.15 0.56 0.38 0.81 0.69 0.25 0.32 0.45 0.74 0.6 1.26 0.15 0.52 0.22 1.2 0.22 2.05v0.02c0 0.69-0.07 1.33-0.2 1.92 -0.13 0.59-0.32 1.08-0.58 1.5 -0.25 0.41-0.56 0.74-0.92 0.97C43.46 33 43.05 33.12 42.6 33.12zM42.85 28.64c0.21 0 0.41-0.04 0.58-0.13 0.17-0.08 0.32-0.2 0.44-0.34 0.12-0.14 0.21-0.31 0.27-0.49 0.06-0.19 0.09-0.39 0.09-0.6v-0.02c0-0.46-0.13-0.84-0.39-1.14 -0.26-0.3-0.6-0.46-1.04-0.46 -0.22 0-0.41 0.04-0.57 0.12 -0.16 0.08-0.31 0.2-0.42 0.35 -0.12 0.15-0.21 0.32-0.27 0.51 -0.06 0.2-0.09 0.41-0.09 0.63v0.03c0 0.46 0.12 0.83 0.37 1.12C42.07 28.49 42.42 28.64 42.85 28.64z"/><path fill="#053B5C" d="M49.37 33.12c-0.42 0-0.79-0.08-1.1-0.24 -0.31-0.16-0.58-0.38-0.8-0.67 -0.13-0.17-0.24-0.35-0.35-0.55 -0.1-0.2-0.19-0.43-0.26-0.7 -0.07-0.27-0.13-0.57-0.16-0.91 -0.04-0.34-0.06-0.73-0.06-1.17v-0.03c0-0.66 0.06-1.28 0.19-1.85 0.12-0.57 0.31-1.07 0.55-1.5 0.24-0.43 0.55-0.76 0.92-1.01 0.37-0.25 0.79-0.36 1.27-0.36 0.44 0 0.82 0.08 1.15 0.25 0.33 0.17 0.64 0.41 0.94 0.71l-0.65 1.17c-0.24-0.24-0.47-0.43-0.7-0.56 -0.23-0.13-0.48-0.2-0.79-0.2 -0.25 0-0.48 0.07-0.68 0.21 -0.2 0.14-0.36 0.33-0.5 0.58 -0.14 0.25-0.24 0.54-0.32 0.88 -0.08 0.34-0.12 0.7-0.14 1.1 0.09-0.1 0.19-0.21 0.29-0.32 0.11-0.11 0.22-0.2 0.36-0.28 0.13-0.08 0.28-0.14 0.44-0.19 0.16-0.05 0.34-0.08 0.54-0.08 0.33 0 0.64 0.06 0.93 0.18 0.29 0.12 0.55 0.3 0.76 0.54 0.22 0.24 0.39 0.52 0.51 0.86 0.12 0.34 0.19 0.72 0.19 1.15v0.03c0 0.43-0.07 0.83-0.19 1.19 -0.13 0.36-0.31 0.67-0.54 0.94 -0.23 0.26-0.49 0.46-0.8 0.61C50.06 33.04 49.72 33.12 49.37 33.12zM49.34 31.8c0.22 0 0.41-0.04 0.58-0.12 0.17-0.08 0.31-0.19 0.43-0.34 0.12-0.14 0.21-0.31 0.27-0.5 0.06-0.19 0.09-0.4 0.09-0.62v-0.02c0-0.44-0.12-0.8-0.38-1.09 -0.25-0.28-0.59-0.43-1.02-0.43 -0.21 0-0.41 0.04-0.58 0.12 -0.17 0.08-0.31 0.19-0.44 0.33 -0.12 0.14-0.21 0.3-0.28 0.49 -0.06 0.19-0.1 0.38-0.1 0.59v0.02c0 0.23 0.04 0.43 0.1 0.62 0.07 0.19 0.17 0.35 0.28 0.5 0.12 0.14 0.27 0.25 0.45 0.33C48.93 31.76 49.13 31.8 49.34 31.8z"/><path fill="#053B5C" d="M55.99 23.44c0 2.4 0 6.11 0 8.5 0 1.26-0.18 2.67 0.13 3.82 -0.31-0.19-0.6-0.36-0.87-0.58 -0.32-0.25-0.95-0.58-1.07-0.91 -0.25-0.68 0-1.52 0-2.2 0-1.82 0-7.25 0-9.07 0-0.97 0.12 0.23-0.12-0.64C54.53 22.76 55.13 23.23 55.99 23.44z"/><path fill="#053B5C" d="M55.62 36.18c-1.13-0.17-3.16-0.08-4.39-0.03 -1.78 0.07-3.71-0.03-5.39 0.03 -0.89 0.04-2.38 0.04-3.02 0.11 -0.2 0.02 0 0-0.18 0.06 -0.45 0.13-0.94 0.18-1.5 0.25 0.07-0.59 0.54-1.16 1.38-1.46 1.76-0.63 5.27-0.21 8.02-0.36 1.1-0.06 1.96-0.28 2.75-0.49C53.98 34.97 54.86 35.56 55.62 36.18z"/><path fill="#053B5C" d="M28.35 34.37c0.83 0.17 1.65 0.39 2.7 0.45 2.58 0.15 6.09-0.29 7.9 0.26 1.03 0.31 1.56 0.82 1.63 1.52 -0.56-0.06-1.13-0.15-1.57-0.29 -0.13-0.04-0.95-0.13-1.07-0.14 -0.09 0 0 0-0.12 0.01 -2.61 0.18-5.8 0-8.46 0 -1.23 0-2.52-0.03-3.33 0.17C26.83 35.69 27.75 35.13 28.35 34.37z"/><path fill="#053B5C" d="M25.72 35.5c0.26-1.06 0.06-2.32 0.06-3.43 0-2.43 0-6.17 0-8.6 0.66-0.15 1.19-0.41 1.56-0.71 0.1-0.09 0.16-0.17 0.31-0.22 0.19-0.06 0 1.67 0 2.48 0 1.88 0 5.07 0 6.95 0 0.72 0.27 1.59 0 2.3 -0.08 0.21-1.62 1.5-1.87 1.55C25.59 35.87 25.69 35.58 25.72 35.5z"/><path fill="#053B5C" d="M85.21 17.5c-11.92 0-22.32-7.33-27.94-16.65 -5.62 9.32-16.04 16.65-27.96 16.65 -3.37 0-6.63-0.51-9.69-1.44v4.69 2.29 34.24c0 2.19 0.2 4.33 0.56 6.41 0.61-0.97 1.42-1.96 2.48-2.76 0.78-0.58 1.7-1.07 2.73-1.45 1.17-0.41 2.55-0.48 3.74-0.18 2.78 0.7 4.59 2.76 5.63 4.36 0.46 0.72 1.09 1.31 1.5 1.59 0.14 0.1 0.27 0.17 0.39 0.24 0.27 0.16 0.55 0.31 0.78 0.67 0.2 0.33 0.67 1.83 1.03 3.03l0.16 0.51c0.65 1.68 0.95 2.78 0.91 3.3 -0.07 0.96-0.9 1.44-1.34 1.7l-0.11 0.06c-0.02 0.01-0.04 0.02-0.07 0.03 -3.5 1.35-4.5 1.58-6.12 1.69 -0.01 0-0.02 0-0.03 0 -0.18 0-0.33-0.1-0.4-0.27 -0.07-0.17-0.01-0.37 0.14-0.49 0.24-0.19 0.66-0.32 1.35-0.55 0.98-0.32 2.46-0.8 4.35-1.74 0.3-0.17 0.57-0.32 0.3-1.34 -0.21-0.72-0.52-1.52-1.02-2.61 -0.1-0.19-0.2-0.41-0.31-0.64 -0.29-0.62-0.62-1.33-0.99-1.57l-0.2-0.16c-0.79-0.64-1.68-1.37-2.3-2.34 -0.69-1.07-2.14-2.95-4.19-3.57 -1.41-0.47-3.07-0.13-5 0.98 -1.36 0.82-2.38 2.09-3.07 3.18 1.54 7.04 5.04 13.34 9.91 18.3 4.08-3.88 12.64-11.25 14.13-10.55 0.65 0.31 1.25 0.94 1.14 1.56 -0.03 0.14-0.06 0.26-0.1 0.37 0.46 0.02 1.03 0.21 1.21 1 0.3 0.88-0.27 1.59-0.64 2.06 -0.1 0.13-0.24 0.3-0.29 0.4 1.01 1.9 0.24 3.59-2.35 5.16 -0.79 0.48-2.01 1.09-4.39 1.56 -0.98 0.19-2.73 1.3-4.15 2.41 5.01 3.69 10.97 6.16 17.44 6.99 -0.57-1.13-1.18-2.17-1.79-2.94 -0.21-0.26-0.47-0.52-0.74-0.79 -1.15-1.15-2.58-2.59-2.29-6.02 0.17-2.05 2.89-4.51 5.79-6.75l2.26 0.69c-0.75 0.77-1.49 1.46-2.15 2.08 -3.42 3.19-4.99 4.65-1.34 8.95 0.67 0.79 1.64 2.81 2.53 5 0.86 0.06 1.72 0.1 2.59 0.1 9.68 0 18.5-3.65 25.16-9.66 -0.57-0.53-1.4-1.47-2.04-2.91 -1.13-2.44-1.37-5.81-1.7-9.62 -0.35-3.81-0.89-8.26-2.99-12.77 -0.51-1.15-1.14-2.28-1.84-3.38l1.33-1.38c1 1.53 1.78 3.02 2.41 4.59 2.04 4.93 2.26 9.48 2.31 13.24 0.02 3.76-0.03 6.95 0.83 9.31 0.49 1.39 1.23 2.33 1.74 2.9 7.63-6.89 12.42-16.86 12.42-27.95V23.04v-2.29V16.77v-0.71C91.84 16.99 88.59 17.5 85.21 17.5zM63.18 19.96c-0.09-0.1-0.11-0.26-0.04-0.38 0.07-0.12 0.21-0.19 0.35-0.15l2.92 0.65 0.9-2.84C67.34 17.09 67.46 17 67.6 17c0.14 0 0.26 0.09 0.31 0.23l0.89 2.84 2.92-0.64c0.14-0.03 0.28 0.03 0.35 0.15 0.07 0.12 0.05 0.27-0.04 0.38l-2.02 2.19 2.02 2.19c0.1 0.11 0.11 0.26 0.04 0.38 -0.07 0.12-0.21 0.18-0.35 0.16l-2.92-0.65 -0.89 2.85C67.86 27.21 67.74 27.3 67.6 27.3c-0.14 0-0.26-0.09-0.3-0.23l-0.9-2.85 -2.92 0.65c-0.13 0.03-0.28-0.03-0.34-0.15 -0.07-0.12-0.05-0.27 0.04-0.37l2.02-2.19L63.18 19.96zM70.71 36.34c0.09 0.11 0.11 0.26 0.04 0.38 -0.07 0.12-0.21 0.18-0.35 0.15l-2.23-0.5 -0.68 2.19c-0.04 0.13-0.16 0.23-0.3 0.23 -0.14 0-0.26-0.09-0.31-0.23l-0.69-2.18 -2.23 0.5c-0.14 0.03-0.28-0.03-0.35-0.15 -0.07-0.12-0.05-0.27 0.04-0.38l1.55-1.68 -1.55-1.69c-0.09-0.1-0.11-0.25-0.04-0.37 0.07-0.12 0.21-0.18 0.35-0.15l2.23 0.5 0.69-2.18c0.04-0.13 0.17-0.23 0.31-0.23 0.14 0 0.26 0.09 0.3 0.23l0.69 2.18 2.23-0.5c0.14-0.03 0.28 0.03 0.35 0.15 0.07 0.12 0.05 0.27-0.04 0.37l-1.55 1.69L70.71 36.34zM53.71 11.12c-0.09-0.1-0.11-0.25-0.04-0.38 0.07-0.12 0.21-0.18 0.35-0.15l2.23 0.5 0.69-2.18c0.04-0.13 0.16-0.23 0.3-0.23 0.14 0 0.26 0.09 0.31 0.23l0.68 2.18 2.23-0.5c0.14-0.03 0.28 0.03 0.35 0.15 0.07 0.12 0.06 0.27-0.04 0.38L59.21 12.8l1.55 1.69c0.1 0.1 0.11 0.25 0.04 0.38 -0.07 0.12-0.2 0.18-0.35 0.15l-2.23-0.5 -0.68 2.18c-0.04 0.13-0.16 0.23-0.3 0.23 -0.14 0-0.26-0.09-0.3-0.23l-0.69-2.18 -2.23 0.5c-0.14 0.03-0.28-0.03-0.35-0.15 -0.07-0.12-0.05-0.27 0.04-0.38l1.55-1.69L53.71 11.12zM24.53 37.43c-0.25 0-0.02-3.14-0.02-6.13 0-1.23-0.29-8.51-0.06-8.51 0-0.08 1.1-0.05 1.83-0.02 0.51-0.38 1.13-0.73 1.57-1.13 0.88 0.26 1.97 0.5 3.26 0.55 4.37 0.17 9.32-0.89 9.72 1.65 0.76-2.56 5.05-1.47 9.72-1.68 1.34-0.06 2.38-0.32 3.38-0.55 0.5 0.38 1.06 0.73 1.57 1.11 0.51-0.04 1.76-0.18 1.76-0.04 0.07 0-0.05 5.93-0.01 8.4 0.04 2.77 0.23 6.36 0.01 6.36 0 0.27-5.65 0-8.71 0 -1.69 0-3.22 0.04-4.54-0.13 -0.16 1.12-0.49 1.56-3.03 1.56 -2.75 0-3.43-0.9-3.19-1.46 -1.1 0.11-2.82 0.03-4.34 0.03C30.46 37.43 24.53 37.58 24.53 37.43zM29.07 42.9c0.09 0.03 1.26 1.09 3.6 1.68 2.44 0.63 5.73 0.21 9.47-0.51 3.75-0.68 8.23-1.56 13.37-0.86 3.64 0.45 7.36 1.89 10.66 3.86 -0.37 0.43-0.79 0.91-1.24 1.44 -2.92-1.76-6.13-3.08-9.37-3.61 -4.7-0.84-9.15-0.27-13.01 0.17 -3.84 0.48-7.38 0.66-9.9-0.19C30.21 44.08 29.15 42.93 29.07 42.9zM31.74 45.65c1.07 0.56 2.49 0.94 2.49 0.94l10.05 24.95L31.74 45.65zM42.54 46.11c-3.63 0.37-6.97 0.44-9.3-0.41 -2.24-0.79-3.25-1.85-3.32-1.87 0.07 0.02 1.15 1.03 3.35 1.71 2.3 0.73 5.48 0.51 9.07 0.01 3.59-0.47 7.89-1.06 12.64-0.14 3.24 0.58 6.48 1.95 9.4 3.72 -0.22 0.26-0.46 0.53-0.7 0.81 -2.73-1.67-5.71-2.97-8.74-3.59C50.45 45.36 46.19 45.77 42.54 46.11zM47.86 74.48l31.47 7.87c0 0 0.84 1.51 1.21 2.17L47.86 74.48zM70.14 55.36c0.2 0.43 0.43 0.92 0.55 1.47 0.05 0.22-0.05 0.45-0.25 0.57 -0.45 0.27-1.09 0.22-1.69 0.11 -0.38-0.07-0.75-0.12-1-0.06 -0.45 0.13-0.7 0.49-1.01 0.94 -0.08 0.12-0.16 0.23-0.25 0.35 -0.23 0.3-0.68 0.76-1.3 1.39 -1.68 1.71-4.5 4.57-5.1 6.74 -0.06 0.22-0.09 0.38-0.1 0.51 -0.1 0.66-0.29 0.93-1.22 1.24 -0.54 0.18-5.15 3.03-7.92 4.78 -0.09 0.06-0.18 0.08-0.28 0.08 -0.16 0-0.32-0.07-0.43-0.21 -0.17-0.22-0.14-0.54 0.07-0.72 0.1-0.09 2.38-2.1 3.44-2.76 0.4-0.25 0.84-0.49 1.27-0.74 1.06-0.59 2.15-1.2 2.59-1.86 0.38-0.56 0.51-0.85 0.67-1.19 0.14-0.31 0.3-0.66 0.65-1.24 0.85-1.4 2.01-2.53 3.13-3.63 0.99-0.98 1.93-1.9 2.62-2.96 0.85-1.31 1.45-2.44 1.89-3.55 0.66-1.69 4.68-3.81 5.63-4.1 0.21-0.06 0.43 0 0.56 0.17 0.35 0.42 0.35 0.81 0.29 1.05 -0.19 0.76-1.15 1.16-2 1.51 -0.3 0.13-0.64 0.27-0.77 0.36C69.59 54.08 69.7 54.41 70.14 55.36zM68.62 61.15C68.1 63.65 63.4 72.59 59.38 75.46l-2.04-0.51c1.31-1.08 2.87-2.38 3.1-2.66 1.4-1.76 7.11-11.43 7.16-11.53 0.14-0.23 0.42-0.33 0.68-0.23C68.53 60.62 68.67 60.88 68.62 61.15zM75.42 60.71c2.17 4.53 2.69 8.85 2.95 12.43 0.24 3.59 0.39 6.66 1.37 8.88 0.91 2.15 2.3 3.17 2.37 3.25 -0.06-0.08-1.5-1.04-2.57-3.23 -1.12-2.27-1.44-5.43-1.86-9.04 -0.42-3.6-1.12-7.84-3.31-12.14 -0.68-1.37-0.83-1.77-1.79-3.08l0.77-0.71C74.21 58.34 74.81 59.41 75.42 60.71zM75.48 47.84c0 0.03-1.77-2.6-3.75-0.36C71.1 48.2 51.17 68.29 48.2 71.51c-1.22 1.26-1.35 1.22-1.35 1.22s-0.29 0.01 0.32-0.72c2.96-3.24 21.65-24.79 22.55-25.9 1.85-2.28-1.3-3.49-1.27-3.5 -0.03 0.02 5.67-0.77 7.49-1.47C75.54 42.85 75.47 47.87 75.48 47.84zM77.79 35.38c-0.04 0.01-0.08 0.01-0.12 0.01 -0.2 0-0.39-0.1-0.49-0.28 -0.12-0.21-0.09-0.48 0.07-0.67l3.32-3.61 -3.32-3.61c-0.17-0.18-0.19-0.45-0.07-0.66 0.1-0.18 0.29-0.28 0.49-0.28 0.04 0 0.08 0 0.12 0.01l4.79 1.06 1.47-4.68c0.08-0.23 0.3-0.39 0.54-0.39 0.25 0 0.47 0.16 0.54 0.4l1.47 4.68 4.77-1.06c0.03-0.01 0.06-0.01 0.09-0.02 0.02 0 0.03 0 0.05 0h0.01c0.31 0 0.56 0.26 0.56 0.57 0 0.16-0.06 0.3-0.17 0.4l-3.3 3.59 3.32 3.61c0.17 0.18 0.2 0.45 0.07 0.67 -0.1 0.18-0.29 0.28-0.49 0.28 -0.04 0-0.08 0-0.12-0.01l-4.79-1.07 -1.47 4.68c-0.07 0.24-0.29 0.4-0.54 0.4 -0.25 0-0.47-0.16-0.54-0.4l-1.47-4.67L77.79 35.38zM92.1 52.07c0.09 0.09 0.1 0.23 0.04 0.33 -0.06 0.11-0.18 0.17-0.31 0.14l-3.74-0.83 -1.15 3.66c-0.04 0.12-0.14 0.2-0.27 0.2 -0.13 0-0.23-0.08-0.27-0.2l-1.15-3.66 -3.74 0.83c-0.12 0.03-0.25-0.03-0.31-0.14 -0.06-0.11-0.04-0.24 0.04-0.33l2.59-2.83 -2.59-2.82c-0.08-0.09-0.1-0.23-0.04-0.33 0.07-0.11 0.19-0.16 0.31-0.14l3.74 0.84 1.15-3.66c0.08-0.23 0.47-0.23 0.55 0l1.15 3.66 3.74-0.84c0.13-0.02 0.25 0.03 0.31 0.14 0.06 0.11 0.05 0.24-0.04 0.33l-2.59 2.83L92.1 52.07z"/><path fill="#053B5C" d="M43.9 74.88c-1.15-0.16-7.32 5.3-10.28 7.93 -0.87 0.77-1.56 1.39-2.14 1.89 0.66 0.62 1.35 1.23 2.05 1.81 1.75-1.47 4.12-3.16 5.77-3.18 1.23-0.01 2.85-0.67 4.14-1.69 0.04-0.03 0.1-0.07 0.18-0.12 0.34-0.23 0.98-0.67 0.98-1.31 -0.02-0.25-0.13-0.45-0.25-0.68 -0.12-0.22-0.25-0.47-0.29-0.79 -0.06-0.44 0.24-0.75 0.51-1.03C44.93 77.32 45 77.18 44.93 77c-0.18-0.31-0.27-0.29-0.49-0.24 -0.15 0.03-0.59 0.13-0.82-0.28 -0.21-0.39-0.02-0.78 0.13-1.09C43.93 75.03 43.95 74.94 43.9 74.88z"/><path fill="#053B5C" stroke="#053B5C" stroke-width="0.25" stroke-miterlimit="10" d="M82.12 90.03l1.89-1.52 1.29 7.05L87.67 98.5l-1.66 1.34 -2.37-2.94 -6.71-2.67 1.96-1.58 4.41 2.08L82.12 90.03z"/><path fill="#053B5C" stroke="#053B5C" stroke-width="0.25" stroke-miterlimit="10" d="M92.92 93.63l-7.1-6.34 1.34-1.5 2.71 2.42 2.51-2.81 -2.7-2.42 1.34-1.5 7.1 6.34 -1.34 1.5 -3.17-2.83L91.09 89.3l3.17 2.83L92.92 93.63z"/><path fill="#053B5C" stroke="#053B5C" stroke-width="0.75" stroke-miterlimit="10" d="M16.13 83.07c-0.21 0.42-0.64 1.84 0.61 3.1 1.2 1.2 2.39 1.33 3.62 0.1l3.95-3.95 0.93 0.93 -3.95 3.95c-1.88 1.89-3.87 1.53-5.43-0.03 -1.92-1.92-1.39-3.53-1-4.51L16.13 83.07z"/><path fill="#053B5C" stroke="#053B5C" stroke-width="0.75" stroke-miterlimit="10" d="M33.18 90.7l-0.88 0.99 -4.61-4.06 -1.6 1.82 2.32 2.05 -0.88 0.99 -2.32-2.04 -1.86 2.11 4.78 4.21 -0.88 1 -5.76-5.08 6.09-6.91L33.18 90.7z"/><path fill="#053B5C" stroke="#053B5C" stroke-width="0.75" stroke-miterlimit="10" d="M36.5 92.8l1.61 8.7 0.02 0.01 3.2-6.23 1.16 0.6 -4.21 8.19 -1.16-0.6 -1.61-8.7 -0.02-0.01 -3.2 6.23 -1.16-0.6 4.21-8.19L36.5 92.8z"/><path fill="#053B5C" stroke="#053B5C" stroke-width="0.75" stroke-miterlimit="10" d="M43.65 103.26c0.5 0.55 1.13 1.74 3.26 2.23 1.19 0.28 2.92 0.23 3.18-0.88 0.34-1.47-1.33-1.86-2.44-2.12l-1.32-0.31c-1.21-0.28-2.47-1.28-2.09-2.9 0.44-1.9 2.77-2.27 4.4-1.89 2 0.46 3.05 1.72 3.35 2.06l-0.96 0.87c-0.65-0.63-1.16-1.29-2.65-1.64 -1.11-0.26-2.61-0.17-2.86 0.89 -0.16 0.7 0.26 1.15 1.27 1.38l1.17 0.27c2.08 0.48 3.92 1.47 3.41 3.69 -0.44 1.88-2.63 2.35-4.84 1.84 -2.67-0.62-3.56-2.17-3.98-2.84L43.65 103.26z"/><path fill="#053B5C" stroke="#053B5C" stroke-width="0.75" stroke-miterlimit="10" d="M62.08 98.68l0 1.33 -6.14 0.01 0 2.42 3.1 0 0 1.32 -3.09 0 0 2.81 6.37-0.01 0 1.33 -7.68 0.01 -0.01-9.21L62.08 98.68z"/><path fill="#053B5C" stroke="#053B5C" stroke-width="0.75" stroke-miterlimit="10" d="M65.97 98.04l6.99 5.43 0.02-0.01 -1.75-6.78 1.27-0.33 2.3 8.92 -1.27 0.33 -6.99-5.43 -0.02 0.01 1.75 6.78 -1.27 0.33 -2.3-8.92L65.97 98.04z"/></svg>